<?xml version="1.0" encoding="UTF-8" standalone="no"?>
<!-- Created with Inkscape (http://www.inkscape.org/) -->

<svg
   width="197.63196mm"
   height="111.51301mm"
   viewBox="0 0 197.63196 111.51301"
   version="1.1"
   id="svg1"
   xml:space="preserve"
   xmlns="http://www.w3.org/2000/svg"
   xmlns:svg="http://www.w3.org/2000/svg"><defs
     id="defs1" /><g
     id="layer1"
     transform="translate(-6.1840206,-79.126388)"><rect
       style="fill:#0063a3;fill-opacity:1;fill-rule:evenodd;stroke:none;stroke-width:0.342627"
       id="rect1"
       width="197.63196"
       height="111.51301"
       x="6.184021"
       y="79.126389" /><g
       id="g1"
       transform="matrix(0.26458333,0,0,0.26458333,33.887938,120.40357)"
       style="fill:#ffffff;fill-opacity:1;stroke:none"><g
         id="g8"
         style="fill:#ffffff;fill-opacity:1;stroke:none">
	<path
   class="st0"
   d="m 133.73,71.46 9.31,-4.89 c 4.14,8.18 10.53,12.12 19.17,12.12 8.46,0 14.19,-2.73 14.19,-9.02 0,-6.02 -4.32,-8.84 -15.79,-12.22 -13.44,-3.95 -24.25,-7.61 -24.25,-20.87 0,-11.84 9.68,-19.64 23.78,-19.64 13.72,0 21.81,6.77 26.04,14.94 l -8.55,5.92 c -4.14,-6.96 -10.06,-10.15 -17.58,-10.15 -7.71,0 -12.13,2.82 -12.13,7.9 0,6.49 4.98,8.65 16.35,12.03 13.16,3.85 23.69,8.18 23.69,21.24 0,11.37 -9.68,20.3 -26.22,20.3 -13.81,0.01 -23.59,-7.13 -28.01,-17.66 z"
   id="path1"
   style="fill:#ffffff;fill-opacity:1;stroke:none" />
	<path
   class="st0"
   d="M 192.86,87.81 V 18.26 h 11.56 V 59.71 L 223.31,37.9 H 236 l -16.26,18.24 17.67,31.68 H 225.28 L 212.4,64.7 l -7.99,8.74 v 14.38 h -11.55 z"
   id="path2"
   style="fill:#ffffff;fill-opacity:1;stroke:none" />
	<path
   class="st0"
   d="m 236.76,62.91 c 0,-18.99 13.44,-25.94 23.78,-25.94 11.19,0 21.9,6.67 21.9,26.98 v 2.73 h -34.12 c 0.47,9.02 6.02,12.97 13.35,12.97 6.49,0 10.25,-2.16 14.01,-5.83 l 6.11,6.02 c -5.17,5.73 -12.03,9.02 -20.96,9.02 -12.51,-0.01 -24.07,-7.63 -24.07,-25.95 z m 35.06,-4.89 c -0.66,-7.61 -4.42,-11.66 -11.37,-11.66 -5.64,0 -10.81,3.2 -11.94,11.66 z"
   id="path3"
   style="fill:#ffffff;fill-opacity:1;stroke:none" />
	<path
   class="st0"
   d="M 294.94,74.75 V 47.11 h -8.65 V 37.9 h 8.65 V 20.51 H 306.5 V 37.9 h 12.88 v 9.21 H 306.5 v 24.72 c 0,5.36 1.6,7.52 7.33,7.52 1.69,0 3.85,-0.28 4.98,-0.66 v 9.12 c -1.22,0.28 -5.55,0.66 -8.46,0.66 -12.68,0 -15.41,-4.7 -15.41,-13.72 z"
   id="path4"
   style="fill:#ffffff;fill-opacity:1;stroke:none" />
	<path
   class="st0"
   d="m 323.89,62.91 c 0,-19.08 12.88,-25.94 23.97,-25.94 12.41,0 17.67,6.86 20.68,14.57 l -9.78,3.48 c -1.97,-5.64 -5.55,-8.37 -11.09,-8.37 -6.58,0 -12.13,4.32 -12.13,16.26 0,10.62 4.32,16.45 11.94,16.45 5.26,0 8.93,-1.6 11.66,-8.65 l 9.59,3.48 c -3.57,7.99 -9.49,14.66 -21.52,14.66 -11.57,0 -23.32,-7.71 -23.32,-25.94 z"
   id="path5"
   style="fill:#ffffff;fill-opacity:1;stroke:none" />
	<path
   class="st0"
   d="M 375.68,87.81 V 18.26 h 11.66 v 26.41 c 3.2,-3.38 9.21,-7.71 18.23,-7.71 8.74,0 14.38,5.17 14.38,15.04 V 87.81 H 408.3 v -32.9 c 0,-5.54 -2.35,-8.08 -7.43,-8.08 -5.08,0 -9.31,2.63 -13.54,6.49 v 34.5 h -11.65 z"
   id="path6"
   style="fill:#ffffff;fill-opacity:1;stroke:none" />
	<path
   class="st0"
   d="M 428.79,62.43 V 18.26 h 11.75 V 61.4 c 0,10.62 4.61,16.92 15.32,16.92 10.62,0 15.23,-6.11 15.23,-16.83 V 18.26 h 11.56 v 44.08 c 0,15.79 -8.93,26.6 -26.88,26.6 -19.18,0 -26.98,-10.71 -26.98,-26.51 z"
   id="path7"
   style="fill:#ffffff;fill-opacity:1;stroke:none" />
	<path
   class="st0"
   d="M 490.26,106.61 V 37.9 h 11.56 v 6.58 c 3.29,-3.95 8.46,-7.52 15.89,-7.52 11.37,0 19.74,8.55 19.74,25.85 0,17.3 -8.55,25.75 -21.34,25.75 -5.36,0 -10.62,-2.16 -14.29,-6.3 v 24.34 h -11.56 z m 35.63,-43.7 c 0,-10.53 -4.51,-16.07 -11.94,-16.07 -4.79,0 -9.4,3.01 -12.13,6.3 v 20.02 c 3.1,4.04 7.61,6.2 11.75,6.2 8.75,-0.01 12.32,-5.36 12.32,-16.45 z"
   id="path8"
   style="fill:#ffffff;fill-opacity:1;stroke:none" />
</g><g
         id="g10"
         style="fill:#ffffff;fill-opacity:1;stroke:none">
	<path
   class="st1"
   d="M 100.1,24.02 64.69,3.61 c 0,0 -5.61,-3.28 -14.56,-3.28 -9.32,0 -14.72,3.38 -14.72,3.38 l -32.8,18.77 49.9,28.68 v 57.96 L 85.35,90.37 c 0,0 5.87,-3.24 10.33,-10.94 3.93,-6.78 4.42,-13.34 4.42,-13.34 z m -53.4,9.44 c 0,0 7.32,-1.35 13.51,2.22 6.19,3.57 9.84,5.67 9.84,5.67 0,0 0.01,4.97 0.01,12.4 0,5.95 -5.04,12.12 -5.04,12.12 l 0.01,-21.83 z m 29.02,47.88 -10.69,6.13 v -5.75 l 8.32,-4.76 c 7.92,-5.71 9.23,-14.13 9.23,-17.05 L 82.55,34.05 59.86,20.99 c 0,0 -3.45,-2.26 -9.65,-2.26 -6.2,0 -9.58,2.09 -9.58,2.09 L 32.66,25.4 27.63,22.49 38.64,16.2 c 0,0 4.31,-2.39 11.53,-2.39 6.63,0 11.79,2.59 11.79,2.59 l 25.62,14.8 -0.03,28.22 c 0.18,4.34 -1.84,14.94 -11.83,21.92 z"
   id="path9"
   style="fill:#ffffff;fill-opacity:1;stroke:none" />
	<path
   class="st1"
   d="M 0.09,41.25 35.07,61.32 35.04,67.3 15.14,55.89 2.62,63.01 35.02,81.68 35.04,87.44 0.33,67.47 c 0.09,2.34 2.21,9.55 6.27,15.13 4.12,5.65 8.82,8.05 8.82,8.05 L 47.5,109.12 V 54.04 L 0.12,26.83 Z"
   id="path10"
   style="fill:#ffffff;fill-opacity:1;stroke:none" />
</g></g></g><style
     type="text/css"
     id="style1">
	.st0{fill:#363545;}
	.st1{fill:#005F9E;}
</style></svg>
