<?xml version="1.0" encoding="UTF-8"?>
<!DOCTYPE svg PUBLIC "-//W3C//DTD SVG 1.1//EN" "http://www.w3.org/Graphics/SVG/1.1/DTD/svg11.dtd">
<!-- Creator: CorelDRAW 2020 (64-Bit) -->
<svg xmlns="http://www.w3.org/2000/svg" xml:space="preserve" width="1679px" height="340px" version="1.1" style="shape-rendering:geometricPrecision; text-rendering:geometricPrecision; image-rendering:optimizeQuality; fill-rule:evenodd; clip-rule:evenodd"
viewBox="0 0 1679 339.92"
 xmlns:xlink="http://www.w3.org/1999/xlink"
 xmlns:xodm="http://www.corel.com/coreldraw/odm/2003">
 <defs>
  <style type="text/css">
   <![CDATA[
    .fil0 {fill:black}
    .fil1 {fill:#0063A3}
   ]]>
  </style>
 </defs>
 <g id="图层_x0020_1">
  <metadata id="CorelCorpID_0Corel-Layer"/>
  <path id="path1" class="fil0" d="M417.56 222.25l29.09 -15.28c12.94,25.56 32.9,37.87 59.9,37.87 26.43,0 44.34,-8.53 44.34,-28.18 0,-18.81 -13.5,-27.63 -49.34,-38.19 -41.99,-12.34 -75.77,-23.77 -75.77,-65.21 0,-36.99 30.25,-61.36 74.3,-61.36 42.87,0 68.15,21.15 81.36,46.68l-26.71 18.5c-12.94,-21.75 -31.43,-31.72 -54.93,-31.72 -24.09,0 -37.9,8.81 -37.9,24.69 0,20.27 15.56,27.02 51.09,37.58 41.11,12.03 74.02,25.56 74.02,66.37 0,35.52 -30.25,63.43 -81.93,63.43 -43.15,0.03 -73.71,-22.28 -87.52,-55.18l0 0z"/>
  <polygon id="path2" class="fil0" points="602.32,273.33 602.32,56.02 638.44,56.02 638.44,185.53 697.46,117.39 737.11,117.39 686.3,174.38 741.51,273.37 703.61,273.37 663.37,201.13 638.4,228.44 638.4,273.37 602.32,273.37 "/>
  <path id="path3" class="fil0" d="M739.48 195.53c0,-59.33 42,-81.05 74.31,-81.05 34.96,0 68.42,20.84 68.42,84.3l0 8.53 -106.61 0c1.47,28.19 18.81,40.53 41.72,40.53 20.27,0 32.02,-6.75 43.77,-18.22l19.09 18.81c-16.15,17.91 -37.59,28.18 -65.49,28.18 -39.09,-0.03 -75.21,-23.84 -75.21,-81.08zm109.55 -15.28c-2.06,-23.77 -13.81,-36.43 -35.53,-36.43 -17.62,0 -33.77,10 -37.3,36.43l72.83 0z"/>
  <path id="path4" class="fil0" d="M921.27 232.53l0 -86.36 -27.03 0 0 -28.78 27.03 0 0 -54.34 36.12 0 0 54.34 40.24 0 0 28.78 -40.24 0 0 77.23c0,16.75 5,23.5 22.9,23.5 5.28,0 12.03,-0.87 15.56,-2.06l0 28.5c-3.81,0.87 -17.34,2.06 -26.43,2.06 -39.62,0 -48.15,-14.69 -48.15,-42.87z"/>
  <path id="path5" class="fil0" d="M1011.72 195.53c0,-59.61 40.25,-81.05 74.9,-81.05 38.78,0 55.21,21.44 64.62,45.53l-30.56 10.87c-6.16,-17.62 -17.34,-26.15 -34.65,-26.15 -20.56,0 -37.9,13.5 -37.9,50.8 0,33.18 13.49,51.4 37.3,51.4 16.44,0 27.9,-5 36.43,-27.03l29.97 10.88c-11.16,24.96 -29.65,45.8 -67.24,45.8 -36.15,0 -72.86,-24.09 -72.86,-81.05l-0.01 0z"/>
  <path id="path6" class="fil0" d="M1173.54 273.33l0 -217.31 36.44 0 0 82.52c9.99,-10.56 28.77,-24.09 56.96,-24.09 27.31,0 44.93,16.16 44.93,46.99l0 111.89 -36.4 0 0 -102.79c0,-17.31 -7.35,-25.25 -23.22,-25.25 -15.87,0 -29.09,8.22 -42.31,20.28l0 107.79 -36.4 0.01 0 -0.04z"/>
  <path id="path7" class="fil0" d="M1339.49 194.03l0 -138.01 36.71 0 0 134.8c0,33.18 14.41,52.86 47.87,52.86 33.18,0 47.59,-19.09 47.59,-52.58l0 -135.08 36.12 0 0 137.73c0,49.34 -27.91,83.11 -83.99,83.11 -59.93,0 -84.3,-33.46 -84.3,-82.83z"/>
  <path id="path8" class="fil0" d="M1531.55 332.08l0 -214.69 36.12 0 0 20.56c10.28,-12.34 26.44,-23.5 49.65,-23.5 35.53,0 61.68,26.72 61.68,80.77 0,54.06 -26.71,80.46 -66.68,80.46 -16.75,0 -33.18,-6.75 -44.65,-19.69l0 76.05 -36.12 0 0 0.04zm111.33 -136.55c0,-32.9 -14.09,-50.21 -37.31,-50.21 -14.96,0 -29.37,9.41 -37.9,19.69l0 62.55c9.69,12.62 23.78,19.37 36.72,19.37 27.34,-0.03 38.49,-16.75 38.49,-51.4l0 0z"/>
  <path id="path9" class="fil1" d="M312.48 74.02l-110.64 -63.77c0,0 -17.52,-10.25 -45.49,-10.25 -29.12,0 -45.99,10.56 -45.99,10.56l-102.49 58.65 155.92 89.61 0 181.1 102.61 -58.59c0,0 18.34,-10.12 32.27,-34.18 12.28,-21.18 13.81,-41.68 13.81,-41.68l0 -131.45zm-166.85 29.5c0,0 22.88,-4.22 42.22,6.93 19.34,11.16 30.74,17.72 30.74,17.72 0,0 0.03,15.53 0.03,38.74 0,18.59 -15.74,37.87 -15.74,37.87l0.03 -68.21 -57.28 -33.05zm90.68 149.6l-33.4 19.15 0 -17.96 25.99 -14.88c24.75,-17.84 28.84,-44.15 28.84,-53.27l-0.09 -80.8 -70.9 -40.81c0,0 -10.78,-7.06 -30.15,-7.06 -19.37,0 -29.93,6.53 -29.93,6.53l-24.9 14.31 -15.72 -9.09 34.4 -19.65c0,0 13.47,-7.47 36.03,-7.47 20.71,0 36.83,8.09 36.83,8.09l80.05 46.24 -0.09 88.18c0.56,13.56 -5.75,46.68 -36.96,68.49l0 0z"/>
  <path id="path10" class="fil1" d="M0 127.86l109.3 62.71 -0.1 18.68 -62.18 -35.65 -39.12 22.25 101.24 58.33 0.06 18 -108.45 -62.4c0.28,7.31 6.9,29.84 19.59,47.27 12.87,17.66 27.56,25.16 27.56,25.16l100.23 57.71 0 -172.1 -148.04 -85.02 -0.09 45.06z"/>
 </g>
</svg>
